<svg id="svg" version="1.1" xmlns="http://www.w3.org/2000/svg" xmlns:xlink="http://www.w3.org/1999/xlink" width="400" height="205.8741258741259" viewBox="0, 0, 400,205.8741258741259"><g id="svgg"><path id="path0" d="M399.916 102.917 C 399.916 159.567,399.935 182.717,399.958 154.361 C 399.982 126.006,399.982 79.656,399.958 51.361 C 399.935 23.067,399.916 46.267,399.916 102.917 M27.000 102.666 L 27.000 171.167 78.000 171.167 L 129.000 171.167 128.959 102.708 L 128.917 34.250 77.958 34.208 L 27.000 34.166 27.000 102.666 M49.750 47.333 L 49.750 53.750 43.333 53.750 L 36.917 53.750 36.873 47.501 C 36.849 44.063,36.866 41.156,36.910 41.040 C 36.974 40.874,38.347 40.839,43.371 40.873 L 49.750 40.917 49.750 47.333 M323.113 41.109 C 323.051 41.171,323.000 60.335,323.000 83.694 L 323.000 126.167 329.163 126.167 L 335.326 126.167 335.373 105.958 L 335.419 85.750 335.797 84.417 C 337.379 78.828,341.505 75.818,347.583 75.818 C 354.524 75.818,358.782 79.676,359.649 86.750 C 359.773 87.763,359.833 94.411,359.833 107.208 L 359.833 126.167 365.917 126.167 L 372.000 126.167 372.000 105.827 C 372.000 92.521,371.938 84.927,371.822 83.868 C 370.562 72.416,363.501 65.519,352.417 64.913 C 346.144 64.570,339.850 66.868,336.000 70.907 L 335.417 71.519 335.333 56.301 L 335.250 41.083 329.238 41.040 C 325.932 41.016,323.175 41.047,323.113 41.109 M146.912 48.373 C 146.869 48.489,146.814 52.633,146.792 57.583 L 146.750 66.583 143.289 66.628 L 139.828 66.673 139.872 71.295 L 139.917 75.917 143.375 75.962 L 146.833 76.007 146.833 93.648 C 146.833 114.224,146.814 113.967,148.672 117.707 C 151.754 123.911,156.402 126.167,166.105 126.167 L 170.667 126.167 170.667 121.000 L 170.667 115.833 168.125 115.830 C 163.013 115.823,161.066 115.083,159.840 112.679 C 159.001 111.035,159.005 111.130,159.002 92.958 L 159.000 76.000 164.833 76.000 L 170.667 76.000 170.667 71.333 L 170.667 66.667 164.835 66.667 L 159.003 66.667 158.960 57.458 L 158.917 48.250 152.954 48.206 C 148.273 48.172,146.974 48.208,146.912 48.373 M210.715 65.025 C 196.898 66.340,188.171 78.202,188.170 95.667 C 188.170 115.889,197.149 126.436,214.667 126.787 C 224.528 126.985,231.371 124.415,237.311 118.283 C 238.224 117.340,238.541 117.803,234.174 113.713 L 230.432 110.209 229.124 111.361 C 224.789 115.180,221.947 116.239,216.000 116.246 C 211.324 116.252,208.732 115.517,205.993 113.411 C 202.528 110.746,200.133 105.252,200.364 100.500 L 200.417 99.417 220.042 99.374 L 239.667 99.332 239.663 96.208 C 239.637 74.910,228.857 63.298,210.715 65.025 M281.152 65.012 C 266.192 66.252,257.417 77.646,257.417 95.833 C 257.417 108.455,260.903 116.697,268.598 122.263 C 275.842 127.503,288.112 128.413,296.417 124.326 C 299.039 123.036,304.167 119.066,304.167 118.326 C 304.167 118.256,302.322 116.423,300.067 114.253 L 295.968 110.308 294.776 111.452 C 291.016 115.060,288.215 116.182,283.534 115.953 C 277.018 115.635,272.072 111.526,270.419 105.056 C 268.981 99.432,269.275 89.328,271.006 84.846 C 274.713 75.250,286.681 72.639,294.176 79.792 C 295.064 80.640,295.857 81.332,295.937 81.331 C 296.018 81.329,297.921 79.530,300.167 77.332 L 304.250 73.337 302.650 71.794 C 297.026 66.367,290.323 64.253,281.152 65.012 M100.632 65.176 C 110.460 66.248,116.866 72.270,118.619 82.083 C 118.854 83.396,118.895 86.247,118.951 104.958 L 119.014 126.333 112.930 126.333 L 106.845 126.333 106.787 106.458 C 106.734 88.445,106.702 86.476,106.445 85.435 C 104.903 79.179,101.010 76.009,94.833 75.978 C 88.342 75.946,84.176 78.987,82.535 84.955 L 82.087 86.583 82.038 106.458 L 81.990 126.333 75.911 126.333 L 69.833 126.333 69.833 96.083 L 69.833 65.833 75.833 65.833 L 81.833 65.833 81.833 68.753 L 81.833 71.672 83.189 70.501 C 88.047 66.302,94.077 64.462,100.632 65.176 M49.500 96.083 L 49.500 126.333 43.417 126.333 L 37.333 126.333 37.333 96.083 L 37.333 65.833 43.417 65.833 L 49.500 65.833 49.500 96.083 M215.715 75.171 C 222.489 75.947,227.225 81.767,227.387 89.514 L 227.417 90.917 213.917 90.917 L 200.417 90.917 200.362 90.000 C 199.825 80.941,206.850 74.155,215.715 75.171 M157.155 135.552 C 154.105 136.411,153.425 137.737,153.420 142.833 C 153.415 148.226,154.522 149.950,158.112 150.139 C 160.598 150.270,163.333 148.218,163.333 146.223 C 163.333 145.635,162.227 145.976,162.031 146.625 C 161.075 149.798,156.565 150.090,154.943 147.083 C 154.368 146.017,154.395 139.632,154.980 138.443 C 156.425 135.509,161.080 135.864,162.013 138.979 C 162.261 139.807,163.478 140.099,163.273 139.282 C 162.582 136.528,159.772 134.815,157.155 135.552 M171.155 135.552 C 169.465 136.028,168.250 137.084,167.745 138.514 C 167.139 140.233,167.295 146.285,167.981 147.628 C 169.710 151.019,175.047 150.992,176.890 147.583 C 177.312 146.801,177.529 140.181,177.175 138.866 C 176.530 136.467,173.610 134.860,171.155 135.552 M216.122 135.505 C 213.892 136.066,212.900 137.397,213.028 139.659 C 213.150 141.826,214.291 142.759,217.417 143.248 C 220.817 143.779,221.947 145.011,221.091 147.252 C 220.262 149.424,216.347 149.935,214.135 148.160 C 213.404 147.574,213.312 147.563,212.909 148.009 C 212.212 148.779,214.655 150.044,217.025 150.140 C 220.457 150.277,222.326 148.906,222.326 146.250 C 222.326 143.807,221.196 142.815,217.777 142.257 C 214.783 141.768,213.767 140.801,214.077 138.735 C 214.432 136.365,218.121 135.487,220.404 137.229 C 220.936 137.635,220.972 137.640,221.230 137.355 C 222.162 136.325,218.350 134.944,216.122 135.505 M140.910 135.708 C 140.866 135.823,140.849 139.104,140.873 143.000 L 140.917 150.083 145.292 150.128 L 149.667 150.172 149.667 149.673 L 149.667 149.173 145.875 149.128 L 142.083 149.083 142.083 146.167 L 142.083 143.250 145.386 143.205 L 148.688 143.160 148.636 142.705 L 148.583 142.250 145.292 142.205 L 142.000 142.160 142.000 139.330 L 142.000 136.500 145.833 136.500 L 149.667 136.500 149.667 136.000 L 149.667 135.500 145.328 135.500 C 142.011 135.500,140.971 135.549,140.910 135.708 M182.207 142.781 L 182.250 150.083 186.583 150.083 L 190.917 150.083 190.969 149.625 L 191.022 149.167 187.180 149.167 L 183.337 149.167 183.294 142.375 L 183.250 135.583 182.707 135.531 L 182.163 135.479 182.207 142.781 M194.707 142.792 L 194.750 150.083 199.125 150.128 L 203.500 150.172 203.500 149.673 L 203.500 149.173 199.708 149.128 L 195.917 149.083 195.917 146.167 L 195.917 143.250 199.136 143.205 L 202.355 143.159 202.302 142.705 L 202.250 142.250 199.042 142.205 L 195.833 142.159 195.833 139.330 L 195.833 136.500 199.667 136.500 L 203.500 136.500 203.500 136.000 L 203.500 135.500 199.082 135.500 L 194.663 135.500 194.707 142.792 M226.533 141.197 C 226.589 147.571,226.561 147.407,227.810 148.722 C 230.101 151.136,234.555 150.497,236.022 147.545 C 236.410 146.763,236.418 146.657,236.468 141.125 L 236.520 135.500 235.927 135.500 L 235.333 135.500 235.333 140.772 C 235.333 146.492,235.281 146.917,234.447 147.929 C 233.163 149.486,230.276 149.624,228.777 148.199 C 227.753 147.227,227.758 147.254,227.667 141.167 L 227.583 135.583 227.033 135.530 L 226.484 135.478 226.533 141.197 M241.667 142.833 L 241.667 150.167 242.163 150.167 L 242.659 150.167 242.705 147.042 L 242.750 143.917 245.667 143.833 C 249.920 143.712,251.318 142.721,251.330 139.821 C 251.342 136.571,249.683 135.500,244.636 135.500 L 241.667 135.500 241.667 142.833 M255.373 142.792 L 255.417 150.083 259.792 150.128 L 264.167 150.172 264.167 149.669 L 264.167 149.167 260.329 149.167 L 256.492 149.167 256.538 146.208 L 256.583 143.250 259.802 143.205 L 263.021 143.159 262.969 142.705 L 262.917 142.250 259.708 142.205 L 256.500 142.159 256.500 139.330 L 256.500 136.500 260.333 136.500 L 264.167 136.500 264.167 136.000 L 264.167 135.500 259.748 135.500 L 255.330 135.500 255.373 142.792 M268.500 142.833 L 268.500 150.167 268.997 150.167 L 269.493 150.167 269.538 146.792 L 269.583 143.417 271.574 143.417 L 273.566 143.417 275.074 146.348 C 277.000 150.090,277.052 150.167,277.671 150.167 C 278.354 150.167,278.341 150.123,276.794 147.187 C 276.039 145.755,275.299 144.316,275.150 143.990 L 274.878 143.396 275.650 143.121 C 279.090 141.900,278.972 136.797,275.480 135.759 C 274.828 135.566,273.831 135.500,271.553 135.500 L 268.500 135.500 268.500 142.833 M282.707 142.792 L 282.750 150.083 283.250 150.083 L 283.750 150.083 283.793 142.792 L 283.837 135.500 283.250 135.500 L 282.663 135.500 282.707 142.792 M289.167 142.836 L 289.167 150.172 293.542 150.128 L 297.917 150.083 297.969 149.625 L 298.022 149.167 294.178 149.167 L 290.333 149.167 290.333 146.167 L 290.333 143.167 293.594 143.167 L 296.855 143.167 296.803 142.708 L 296.750 142.250 293.542 142.205 L 290.333 142.159 290.333 139.330 L 290.333 136.500 294.167 136.500 L 298.000 136.500 298.000 136.000 L 298.000 135.500 293.583 135.500 L 289.167 135.500 289.167 142.836 M302.000 140.793 C 302.000 147.123,302.049 147.404,303.394 148.749 C 305.899 151.254,310.473 150.402,311.668 147.207 C 311.974 146.389,312.000 145.904,312.000 140.900 L 312.000 135.479 311.458 135.531 L 310.917 135.583 310.833 141.167 C 310.742 147.254,310.747 147.227,309.723 148.199 C 308.253 149.596,305.362 149.489,304.102 147.991 C 303.269 147.002,303.255 146.894,303.167 141.083 L 303.083 135.583 302.542 135.531 L 302.000 135.479 302.000 140.793 M317.167 142.821 L 317.167 150.167 317.663 150.167 L 318.160 150.167 318.205 146.792 L 318.250 143.417 320.250 143.417 L 322.250 143.417 324.000 146.750 L 325.750 150.083 326.333 150.083 C 327.085 150.083,327.124 150.209,325.247 146.670 C 323.383 143.155,323.443 143.487,324.585 143.014 C 327.549 141.785,327.671 137.501,324.785 135.958 C 324.134 135.610,323.836 135.579,320.625 135.530 L 317.167 135.476 317.167 142.821 M331.411 135.706 C 331.366 135.822,331.349 139.104,331.373 143.000 L 331.417 150.083 335.833 150.083 L 340.250 150.083 340.302 149.628 L 340.355 149.173 336.469 149.128 L 332.583 149.083 332.583 146.167 L 332.583 143.250 335.886 143.205 L 339.188 143.160 339.136 142.705 L 339.083 142.250 335.792 142.205 L 332.500 142.160 332.500 139.333 L 332.500 136.506 336.375 136.461 L 340.250 136.417 340.250 136.000 L 340.250 135.583 335.871 135.539 C 332.458 135.504,331.474 135.541,331.411 135.706 M174.149 136.824 C 175.010 137.264,175.455 137.733,175.894 138.667 C 176.392 139.725,176.430 145.617,175.948 146.867 C 174.736 150.008,169.936 149.911,168.809 146.723 C 168.506 145.863,168.493 139.880,168.793 138.894 C 169.424 136.818,172.105 135.782,174.149 136.824 M248.046 136.677 C 249.531 137.089,250.239 138.211,250.139 139.992 C 250.007 142.318,249.056 142.896,245.337 142.908 L 242.750 142.917 242.704 139.922 C 242.679 138.275,242.696 136.832,242.741 136.714 C 242.844 136.444,247.101 136.414,248.046 136.677 M275.649 136.917 C 277.443 137.973,277.512 140.616,275.780 141.901 C 275.353 142.218,275.045 142.255,272.405 142.302 L 269.500 142.355 269.500 139.413 L 269.500 136.472 272.292 136.528 C 274.721 136.576,275.157 136.627,275.649 136.917 M323.750 136.683 C 326.131 137.329,326.509 140.890,324.315 142.009 C 323.731 142.308,323.386 142.337,320.957 142.296 L 318.250 142.250 318.204 139.590 C 318.179 138.127,318.195 136.833,318.240 136.715 C 318.346 136.441,322.763 136.415,323.750 136.683 M140.625 158.762 C 140.556 158.832,140.500 161.614,140.500 164.944 L 140.500 171.000 143.062 171.000 C 147.996 171.000,148.908 170.039,148.914 164.833 C 148.918 161.190,148.481 160.023,146.776 159.126 C 146.059 158.749,140.937 158.446,140.625 158.762 M152.000 159.866 L 152.000 161.065 152.583 160.500 C 153.049 160.049,153.167 159.806,153.167 159.301 C 153.167 158.687,153.148 158.667,152.583 158.667 L 152.000 158.667 152.000 159.866 M156.833 164.833 L 156.833 171.000 157.250 171.000 L 157.667 171.000 157.667 164.833 L 157.667 158.667 157.250 158.667 L 156.833 158.667 156.833 164.833 M161.500 164.823 L 161.500 171.000 161.998 171.000 L 162.495 171.000 162.539 165.738 L 162.583 160.475 166.061 165.738 C 169.290 170.624,169.572 171.000,170.019 171.000 L 170.500 171.000 170.500 164.822 L 170.500 158.645 170.042 158.697 L 169.583 158.750 169.539 163.997 L 169.495 169.243 165.999 163.997 C 162.812 159.213,162.459 158.745,162.002 158.698 L 161.500 158.646 161.500 164.823 M176.199 159.022 C 174.312 159.956,173.954 160.771,173.866 164.330 C 173.742 169.307,174.845 171.068,178.088 171.072 C 180.932 171.077,182.483 169.118,182.303 165.750 L 182.250 164.750 180.167 164.750 C 178.194 164.750,178.083 164.768,178.083 165.083 C 178.083 165.391,178.210 165.420,179.708 165.464 L 181.333 165.512 181.330 166.631 C 181.319 169.864,178.064 171.478,175.838 169.355 C 174.509 168.088,174.349 161.864,175.609 160.471 C 177.235 158.673,180.550 159.450,181.245 161.792 C 181.394 162.296,182.167 162.326,182.167 161.827 C 182.167 159.592,178.515 157.876,176.199 159.022 M185.667 164.833 L 185.667 171.006 189.375 170.962 C 192.957 170.918,193.083 170.905,193.083 170.583 C 193.083 170.263,192.957 170.248,189.787 170.205 L 186.491 170.160 186.537 167.705 L 186.583 165.250 189.386 165.204 C 192.177 165.159,192.189 165.157,192.136 164.788 C 192.084 164.423,192.035 164.416,189.287 164.371 L 186.491 164.325 186.537 161.954 L 186.583 159.583 189.833 159.500 C 192.944 159.420,193.083 159.402,193.083 159.083 C 193.083 158.761,192.957 158.748,189.375 158.705 L 185.667 158.660 185.667 164.833 M196.000 164.822 L 196.000 171.000 196.417 171.000 L 196.833 171.000 196.833 165.833 C 196.833 162.992,196.896 160.667,196.973 160.667 C 197.050 160.667,198.662 162.992,200.557 165.833 C 203.804 170.704,204.029 171.000,204.502 171.000 L 205.004 171.000 204.960 164.875 L 204.917 158.750 204.461 158.697 L 204.005 158.645 203.961 163.926 L 203.917 169.206 200.417 163.978 C 197.375 159.434,196.857 158.743,196.458 158.697 L 196.000 158.645 196.000 164.822 M208.833 164.833 L 208.833 171.000 209.250 171.000 L 209.667 171.000 209.667 164.833 L 209.667 158.667 209.250 158.667 L 208.833 158.667 208.833 164.833 M213.500 164.833 L 213.500 171.000 217.250 171.000 L 221.000 171.000 221.000 170.583 L 221.000 170.167 217.750 170.167 L 214.500 170.167 214.500 167.667 L 214.500 165.167 217.250 165.167 L 220.000 165.167 220.000 164.750 L 220.000 164.333 217.250 164.333 L 214.500 164.333 214.500 161.917 L 214.500 159.500 217.750 159.500 L 221.000 159.500 221.000 159.083 L 221.000 158.667 217.250 158.667 L 213.500 158.667 213.500 164.833 M223.833 164.820 L 223.833 171.000 224.333 171.000 L 224.833 171.000 224.833 168.161 L 224.833 165.322 226.536 165.369 L 228.239 165.417 229.661 168.167 C 231.025 170.804,231.105 170.919,231.625 170.969 C 232.307 171.035,232.397 171.320,230.749 168.175 C 229.237 165.287,229.230 165.262,229.991 165.110 C 231.348 164.839,232.367 162.888,232.002 161.260 C 231.536 159.178,230.706 158.770,226.792 158.696 L 223.833 158.640 223.833 164.820 M235.243 158.876 C 235.198 158.991,235.182 161.747,235.206 165.001 L 235.250 170.917 235.708 170.969 L 236.167 171.022 236.167 164.844 L 236.167 158.667 235.745 158.667 C 235.513 158.667,235.287 158.761,235.243 158.876 M240.000 164.833 L 240.000 171.000 243.750 171.000 L 247.500 171.000 247.500 170.583 L 247.500 170.167 244.250 170.167 L 241.000 170.167 241.000 167.667 L 241.000 165.167 243.762 165.167 L 246.523 165.167 246.470 164.792 C 246.418 164.423,246.374 164.416,243.708 164.371 L 241.000 164.325 241.000 161.913 L 241.000 159.500 244.250 159.500 L 247.500 159.500 247.500 159.083 L 247.500 158.667 243.750 158.667 L 240.000 158.667 240.000 164.833 M254.833 164.833 L 254.833 171.000 255.250 171.000 L 255.667 171.000 255.667 164.833 L 255.667 158.667 255.250 158.667 L 254.833 158.667 254.833 164.833 M259.500 164.823 L 259.500 171.000 260.000 171.000 L 260.500 171.000 260.500 165.708 L 260.500 160.417 263.998 165.667 C 267.188 170.454,267.541 170.921,267.998 170.969 L 268.500 171.021 268.500 164.833 L 268.500 158.645 268.042 158.697 L 267.583 158.750 267.539 163.997 L 267.495 169.243 263.999 163.997 C 260.812 159.213,260.459 158.745,260.002 158.698 L 259.500 158.646 259.500 164.823 M272.333 164.841 L 272.333 171.022 272.792 170.969 L 273.250 170.917 273.296 168.212 L 273.342 165.508 276.046 165.462 C 278.698 165.418,278.751 165.410,278.803 165.046 C 278.855 164.677,278.840 164.675,276.136 164.629 L 273.417 164.583 273.371 162.042 L 273.325 159.500 276.591 159.500 L 279.857 159.500 279.803 159.125 C 279.750 158.751,279.745 158.750,276.042 158.705 L 272.333 158.660 272.333 164.841 M284.007 158.930 C 281.939 159.827,281.599 160.588,281.528 164.487 C 281.461 168.220,281.576 168.759,282.679 169.862 C 284.832 172.014,288.884 171.174,289.647 168.417 C 289.892 167.531,289.889 162.142,289.643 161.320 C 289.025 159.258,286.105 158.020,284.007 158.930 M293.243 158.876 C 293.198 158.991,293.182 161.747,293.206 165.001 L 293.250 170.917 293.708 170.969 L 294.167 171.022 294.167 168.172 L 294.167 165.322 295.875 165.369 L 297.583 165.417 299.023 168.167 C 300.379 170.756,300.494 170.920,300.982 170.969 C 301.656 171.037,301.712 171.215,300.082 168.095 L 298.664 165.380 299.407 165.096 C 302.356 163.970,302.091 159.689,299.020 158.836 C 298.104 158.582,293.343 158.615,293.243 158.876 M304.667 164.822 L 304.667 171.000 305.083 171.000 L 305.500 171.000 305.500 166.167 C 305.500 163.508,305.560 161.333,305.634 161.333 C 305.708 161.333,306.581 163.133,307.573 165.333 C 309.999 170.712,309.679 170.744,312.274 164.856 L 313.917 161.129 313.961 166.065 L 314.005 171.000 314.502 171.000 L 315.000 171.000 315.000 164.833 L 315.000 158.667 314.522 158.667 C 314.057 158.667,313.992 158.786,311.988 163.333 C 310.857 165.900,309.891 167.999,309.841 167.998 C 309.791 167.997,308.812 165.916,307.666 163.373 C 305.720 159.059,305.551 158.746,305.124 158.697 L 304.667 158.645 304.667 164.822 M321.335 159.615 C 321.136 160.148,320.159 162.796,319.164 165.500 C 318.169 168.204,317.305 170.548,317.243 170.708 C 317.151 170.947,317.224 171.000,317.637 171.000 C 318.168 171.000,318.296 170.775,318.991 168.625 L 319.193 168.000 322.076 168.000 L 324.959 168.000 325.500 169.500 C 326.015 170.927,326.065 171.000,326.532 171.000 C 326.923 171.000,327.004 170.941,326.929 170.708 C 325.563 166.431,322.482 158.744,322.116 158.699 C 321.745 158.653,321.657 158.756,321.335 159.615 M326.833 159.075 C 326.833 159.487,326.841 159.489,328.625 159.536 L 330.417 159.583 330.461 165.292 L 330.504 171.000 330.917 171.000 L 331.329 171.000 331.373 165.292 L 331.417 159.583 333.250 159.500 C 334.944 159.423,335.083 159.391,335.083 159.083 C 335.083 158.760,334.957 158.749,330.958 158.705 L 326.833 158.661 326.833 159.075 M337.500 164.822 L 337.500 171.000 338.002 171.000 L 338.504 171.000 338.460 164.875 L 338.417 158.750 337.958 158.697 L 337.500 158.645 337.500 164.822 M344.072 159.063 C 342.204 159.933,341.833 160.892,341.834 164.853 C 341.835 168.367,341.945 168.836,343.009 169.868 C 344.395 171.213,346.084 171.475,348.014 170.645 L 348.852 170.284 349.481 170.898 C 349.904 171.311,350.200 171.477,350.388 171.405 C 350.809 171.243,350.727 170.958,350.083 170.333 C 349.414 169.684,349.395 169.588,349.792 168.817 C 350.160 168.102,350.312 162.529,349.994 161.395 C 349.538 159.765,347.933 158.670,346.000 158.670 C 345.211 158.670,344.687 158.777,344.072 159.063 M353.366 163.446 C 353.414 168.039,353.433 168.280,353.787 168.942 C 355.345 171.857,359.823 171.851,361.385 168.932 C 361.732 168.283,361.752 168.019,361.801 163.446 L 361.852 158.643 361.384 158.696 L 360.917 158.750 360.833 163.500 C 360.745 168.521,360.738 168.569,359.889 169.355 C 358.301 170.826,355.694 170.446,354.611 168.583 C 354.481 168.361,354.389 166.667,354.333 163.500 L 354.250 158.750 353.782 158.696 L 353.314 158.643 353.366 163.446 M365.500 164.833 L 365.500 171.006 369.208 170.962 C 372.791 170.918,372.917 170.905,372.917 170.583 C 372.917 170.264,372.778 170.246,369.667 170.167 L 366.417 170.083 366.417 167.667 L 366.417 165.250 369.219 165.204 C 372.010 165.159,372.022 165.157,371.969 164.788 C 371.918 164.423,371.868 164.416,369.120 164.371 L 366.324 164.325 366.370 161.954 L 366.417 159.583 369.667 159.500 C 372.778 159.420,372.917 159.402,372.917 159.083 C 372.917 158.761,372.791 158.748,369.208 158.705 L 365.500 158.660 365.500 164.833 M146.272 159.879 C 147.696 160.632,148.079 161.885,147.963 165.414 C 147.831 169.448,147.128 170.164,143.292 170.166 L 141.500 170.167 141.500 164.814 L 141.500 159.461 143.625 159.532 C 145.172 159.583,145.892 159.678,146.272 159.879 M229.902 159.836 C 231.448 160.625,231.567 163.004,230.113 164.071 C 229.699 164.375,229.354 164.424,227.238 164.474 L 224.833 164.531 224.833 162.000 L 224.833 159.468 227.125 159.528 C 228.721 159.570,229.564 159.663,229.902 159.836 M287.050 159.725 C 287.786 160.033,288.622 161.028,288.783 161.788 C 289.109 163.324,288.942 167.698,288.526 168.544 C 287.271 171.092,283.123 170.630,282.553 167.879 C 282.287 166.594,282.394 162.313,282.713 161.483 C 283.363 159.795,285.318 159.002,287.050 159.725 M298.735 159.659 C 301.016 160.188,301.097 163.707,298.843 164.333 C 298.517 164.424,297.331 164.499,296.208 164.499 L 294.167 164.500 294.167 162.000 L 294.167 159.500 296.125 159.504 C 297.202 159.506,298.377 159.576,298.735 159.659 M347.383 159.725 C 348.119 160.033,348.956 161.028,349.117 161.788 C 349.485 163.526,349.172 168.833,348.701 168.833 C 348.643 168.833,348.236 168.480,347.797 168.048 C 347.044 167.306,346.984 167.278,346.714 167.548 C 346.445 167.817,346.473 167.878,347.214 168.631 C 348.148 169.579,348.149 169.581,347.458 169.939 C 346.220 170.582,344.517 170.216,343.533 169.095 C 342.363 167.763,342.373 161.892,343.547 160.556 C 344.440 159.538,346.083 159.182,347.383 159.725 M322.627 161.417 C 322.812 161.967,323.343 163.485,323.806 164.792 L 324.648 167.167 322.158 167.167 C 320.264 167.167,319.667 167.116,319.667 166.956 C 319.667 166.841,320.080 165.585,320.586 164.165 C 322.250 159.491,322.063 159.743,322.627 161.417 " stroke="none" fill="#fafbfa" fill-rule="evenodd"></path><path id="path1" d="M0.000 102.917 L 0.000 205.833 199.917 205.833 L 399.833 205.833 399.833 102.917 L 399.833 0.000 199.917 0.000 L 0.000 0.000 0.000 102.917 M128.959 102.708 L 129.000 171.167 78.000 171.167 L 27.000 171.167 27.000 102.666 L 27.000 34.166 77.958 34.208 L 128.917 34.250 128.959 102.708 M36.910 41.040 C 36.866 41.156,36.849 44.063,36.873 47.501 L 36.917 53.750 43.333 53.750 L 49.750 53.750 49.750 47.333 L 49.750 40.917 43.371 40.873 C 38.347 40.839,36.974 40.874,36.910 41.040 M335.333 56.301 L 335.417 71.519 336.000 70.907 C 339.850 66.868,346.144 64.570,352.417 64.913 C 363.501 65.519,370.562 72.416,371.822 83.868 C 371.938 84.927,372.000 92.521,372.000 105.827 L 372.000 126.167 365.917 126.167 L 359.833 126.167 359.833 107.208 C 359.833 94.411,359.773 87.763,359.649 86.750 C 358.782 79.676,354.524 75.818,347.583 75.818 C 341.505 75.818,337.379 78.828,335.797 84.417 L 335.419 85.750 335.373 105.958 L 335.326 126.167 329.163 126.167 L 323.000 126.167 323.000 83.694 C 323.000 60.335,323.051 41.171,323.113 41.109 C 323.175 41.047,325.932 41.016,329.238 41.040 L 335.250 41.083 335.333 56.301 M158.960 57.458 L 159.003 66.667 164.835 66.667 L 170.667 66.667 170.667 71.333 L 170.667 76.000 164.833 76.000 L 159.000 76.000 159.002 92.958 C 159.005 111.130,159.001 111.035,159.840 112.679 C 161.066 115.083,163.013 115.823,168.125 115.830 L 170.667 115.833 170.667 121.000 L 170.667 126.167 166.105 126.167 C 156.402 126.167,151.754 123.911,148.672 117.707 C 146.814 113.967,146.833 114.224,146.833 93.648 L 146.833 76.007 143.375 75.962 L 139.917 75.917 139.872 71.295 L 139.828 66.673 143.289 66.628 L 146.750 66.583 146.792 57.583 C 146.814 52.633,146.869 48.489,146.912 48.373 C 146.974 48.208,148.273 48.172,152.954 48.206 L 158.917 48.250 158.960 57.458 M216.750 64.995 C 231.504 66.329,239.640 77.412,239.663 96.208 L 239.667 99.332 220.042 99.374 L 200.417 99.417 200.364 100.500 C 200.133 105.252,202.528 110.746,205.993 113.411 C 208.732 115.517,211.324 116.252,216.000 116.246 C 221.947 116.239,224.789 115.180,229.124 111.361 L 230.432 110.209 234.174 113.713 C 238.541 117.803,238.224 117.340,237.311 118.283 C 231.371 124.415,224.528 126.985,214.667 126.787 C 197.149 126.436,188.170 115.889,188.170 95.667 C 188.171 75.554,199.466 63.432,216.750 64.995 M287.533 65.000 C 293.574 65.501,298.354 67.649,302.650 71.794 L 304.250 73.337 300.167 77.332 C 297.921 79.530,296.018 81.329,295.937 81.331 C 295.857 81.332,295.064 80.640,294.176 79.792 C 286.681 72.639,274.713 75.250,271.006 84.846 C 269.275 89.328,268.981 99.432,270.419 105.056 C 272.072 111.526,277.018 115.635,283.534 115.953 C 288.215 116.182,291.016 115.060,294.776 111.452 L 295.968 110.308 300.067 114.253 C 302.322 116.423,304.167 118.256,304.167 118.326 C 304.167 118.574,301.335 121.169,299.885 122.248 C 292.665 127.626,280.819 128.442,271.917 124.175 C 262.243 119.539,257.417 110.106,257.417 95.833 C 257.417 75.052,268.755 63.444,287.533 65.000 M95.750 65.117 C 91.107 65.538,86.791 67.388,83.189 70.501 L 81.833 71.672 81.833 68.753 L 81.833 65.833 75.833 65.833 L 69.833 65.833 69.833 96.083 L 69.833 126.333 75.911 126.333 L 81.990 126.333 82.038 106.458 L 82.087 86.583 82.535 84.955 C 84.176 78.987,88.342 75.946,94.833 75.978 C 101.010 76.009,104.903 79.179,106.445 85.435 C 106.702 86.476,106.734 88.445,106.787 106.458 L 106.845 126.333 112.930 126.333 L 119.014 126.333 118.951 104.958 C 118.881 81.690,118.916 82.571,117.925 79.083 C 115.275 69.764,106.365 64.152,95.750 65.117 M37.333 96.083 L 37.333 126.333 43.417 126.333 L 49.500 126.333 49.500 96.083 L 49.500 65.833 43.417 65.833 L 37.333 65.833 37.333 96.083 M211.968 75.174 C 205.040 75.982,199.919 82.524,200.362 90.000 L 200.417 90.917 213.917 90.917 L 227.417 90.917 227.387 89.514 C 227.193 80.206,220.688 74.157,211.968 75.174 M160.516 135.856 C 161.788 136.403,162.896 137.780,163.273 139.282 C 163.478 140.099,162.261 139.807,162.013 138.979 C 161.080 135.864,156.425 135.509,154.980 138.443 C 154.395 139.632,154.368 146.017,154.943 147.083 C 156.565 150.090,161.075 149.798,162.031 146.625 C 162.200 146.065,162.277 146.000,162.776 146.000 C 163.472 146.000,163.477 146.160,162.822 147.470 C 160.930 151.256,155.081 151.015,153.712 147.095 C 153.346 146.047,153.284 139.883,153.628 138.734 C 154.431 136.053,157.750 134.666,160.516 135.856 M174.820 136.042 C 176.003 136.641,176.850 137.656,177.175 138.866 C 177.529 140.181,177.312 146.801,176.890 147.583 C 175.047 150.992,169.710 151.019,167.981 147.628 C 167.295 146.285,167.139 140.233,167.745 138.514 C 168.710 135.779,172.018 134.623,174.820 136.042 M219.623 135.735 C 221.153 136.274,221.705 136.831,221.230 137.355 C 220.972 137.640,220.936 137.635,220.404 137.229 C 218.121 135.487,214.432 136.365,214.077 138.735 C 213.767 140.801,214.783 141.768,217.777 142.257 C 221.196 142.815,222.326 143.807,222.326 146.250 C 222.326 148.906,220.457 150.277,217.025 150.140 C 214.655 150.044,212.212 148.779,212.909 148.009 C 213.312 147.563,213.404 147.574,214.135 148.160 C 216.347 149.935,220.262 149.424,221.091 147.252 C 221.947 145.011,220.817 143.779,217.417 143.248 C 214.291 142.759,213.150 141.826,213.028 139.659 C 212.840 136.328,215.991 134.453,219.623 135.735 M149.667 136.000 L 149.667 136.500 145.833 136.500 L 142.000 136.500 142.000 139.330 L 142.000 142.160 145.292 142.205 L 148.583 142.250 148.636 142.705 L 148.688 143.160 145.386 143.205 L 142.083 143.250 142.083 146.167 L 142.083 149.083 145.875 149.128 L 149.667 149.173 149.667 149.673 L 149.667 150.172 145.292 150.128 L 140.917 150.083 140.873 143.000 C 140.849 139.104,140.866 135.823,140.910 135.708 C 140.971 135.549,142.011 135.500,145.328 135.500 L 149.667 135.500 149.667 136.000 M183.294 142.375 L 183.337 149.167 187.180 149.167 L 191.022 149.167 190.969 149.625 L 190.917 150.083 186.583 150.083 L 182.250 150.083 182.207 142.781 L 182.163 135.479 182.707 135.531 L 183.250 135.583 183.294 142.375 M203.500 136.000 L 203.500 136.500 199.667 136.500 L 195.833 136.500 195.833 139.330 L 195.833 142.159 199.042 142.205 L 202.250 142.250 202.302 142.705 L 202.355 143.159 199.136 143.205 L 195.917 143.250 195.917 146.167 L 195.917 149.083 199.708 149.128 L 203.500 149.173 203.500 149.673 L 203.500 150.172 199.125 150.128 L 194.750 150.083 194.707 142.792 L 194.663 135.500 199.082 135.500 L 203.500 135.500 203.500 136.000 M227.667 141.167 C 227.758 147.254,227.753 147.227,228.777 148.199 C 230.276 149.624,233.163 149.486,234.447 147.929 C 235.281 146.917,235.333 146.492,235.333 140.772 L 235.333 135.500 235.927 135.500 L 236.520 135.500 236.468 141.125 C 236.418 146.657,236.410 146.763,236.022 147.545 C 234.555 150.497,230.101 151.136,227.810 148.722 C 226.561 147.407,226.589 147.571,226.533 141.197 L 226.484 135.478 227.033 135.530 L 227.583 135.583 227.667 141.167 M248.486 135.761 C 251.902 136.776,252.395 141.698,249.250 143.391 C 248.662 143.708,248.239 143.760,245.667 143.833 L 242.750 143.917 242.705 147.042 L 242.659 150.167 242.163 150.167 L 241.667 150.167 241.667 142.833 L 241.667 135.500 244.636 135.500 C 246.847 135.500,247.831 135.567,248.486 135.761 M264.167 136.000 L 264.167 136.500 260.333 136.500 L 256.500 136.500 256.500 139.330 L 256.500 142.159 259.708 142.205 L 262.917 142.250 262.969 142.705 L 263.021 143.159 259.802 143.205 L 256.583 143.250 256.538 146.208 L 256.492 149.167 260.329 149.167 L 264.167 149.167 264.167 149.669 L 264.167 150.172 259.792 150.128 L 255.417 150.083 255.373 142.792 L 255.330 135.500 259.748 135.500 L 264.167 135.500 264.167 136.000 M275.480 135.759 C 278.972 136.797,279.090 141.900,275.650 143.121 L 274.878 143.396 275.150 143.990 C 275.299 144.316,276.039 145.755,276.794 147.187 C 278.341 150.123,278.354 150.167,277.671 150.167 C 277.052 150.167,277.000 150.090,275.074 146.348 L 273.566 143.417 271.574 143.417 L 269.583 143.417 269.538 146.792 L 269.493 150.167 268.997 150.167 L 268.500 150.167 268.500 142.833 L 268.500 135.500 271.553 135.500 C 273.831 135.500,274.828 135.566,275.480 135.759 M283.793 142.792 L 283.750 150.083 283.250 150.083 L 282.750 150.083 282.707 142.792 L 282.663 135.500 283.250 135.500 L 283.837 135.500 283.793 142.792 M298.000 136.000 L 298.000 136.500 294.167 136.500 L 290.333 136.500 290.333 139.330 L 290.333 142.159 293.542 142.205 L 296.750 142.250 296.803 142.708 L 296.855 143.167 293.594 143.167 L 290.333 143.167 290.333 146.167 L 290.333 149.167 294.178 149.167 L 298.022 149.167 297.969 149.625 L 297.917 150.083 293.542 150.128 L 289.167 150.172 289.167 142.836 L 289.167 135.500 293.583 135.500 L 298.000 135.500 298.000 136.000 M303.167 141.083 C 303.255 146.894,303.269 147.002,304.102 147.991 C 305.362 149.489,308.253 149.596,309.723 148.199 C 310.747 147.227,310.742 147.254,310.833 141.167 L 310.917 135.583 311.458 135.531 L 312.000 135.479 312.000 140.900 C 312.000 145.904,311.974 146.389,311.668 147.207 C 310.473 150.402,305.899 151.254,303.394 148.749 C 302.049 147.404,302.000 147.123,302.000 140.793 L 302.000 135.479 302.542 135.531 L 303.083 135.583 303.167 141.083 M324.785 135.958 C 327.671 137.501,327.549 141.785,324.585 143.014 C 323.443 143.487,323.383 143.155,325.247 146.670 C 327.124 150.209,327.085 150.083,326.333 150.083 L 325.750 150.083 324.000 146.750 L 322.250 143.417 320.250 143.417 L 318.250 143.417 318.205 146.792 L 318.160 150.167 317.663 150.167 L 317.167 150.167 317.167 142.821 L 317.167 135.476 320.625 135.530 C 323.836 135.579,324.134 135.610,324.785 135.958 M340.250 136.000 L 340.250 136.417 336.375 136.461 L 332.500 136.506 332.500 139.333 L 332.500 142.160 335.792 142.205 L 339.083 142.250 339.136 142.705 L 339.188 143.160 335.886 143.205 L 332.583 143.250 332.583 146.167 L 332.583 149.083 336.469 149.128 L 340.355 149.173 340.302 149.628 L 340.250 150.083 335.833 150.083 L 331.417 150.083 331.373 143.000 C 331.349 139.104,331.366 135.822,331.411 135.706 C 331.474 135.541,332.458 135.504,335.871 135.539 L 340.250 135.583 340.250 136.000 M171.118 136.593 C 170.129 136.908,169.082 137.944,168.793 138.894 C 168.493 139.880,168.506 145.863,168.809 146.723 C 169.936 149.911,174.736 150.008,175.948 146.867 C 176.430 145.617,176.392 139.725,175.894 138.667 C 175.026 136.821,173.068 135.971,171.118 136.593 M242.741 136.714 C 242.696 136.832,242.679 138.275,242.704 139.922 L 242.750 142.917 245.337 142.908 C 249.056 142.896,250.007 142.318,250.139 139.992 C 250.239 138.211,249.531 137.089,248.046 136.677 C 247.101 136.414,242.844 136.444,242.741 136.714 M269.500 139.413 L 269.500 142.355 272.405 142.302 C 276.255 142.233,277.098 141.677,276.968 139.297 C 276.844 137.041,276.106 136.604,272.292 136.528 L 269.500 136.472 269.500 139.413 M318.240 136.715 C 318.195 136.833,318.179 138.127,318.204 139.590 L 318.250 142.250 320.957 142.296 C 323.386 142.337,323.731 142.308,324.315 142.009 C 326.509 140.890,326.131 137.329,323.750 136.683 C 322.763 136.415,318.346 136.441,318.240 136.715 M146.776 159.126 C 148.481 160.023,148.918 161.190,148.914 164.833 C 148.908 170.039,147.996 171.000,143.062 171.000 L 140.500 171.000 140.500 164.944 C 140.500 161.614,140.556 158.832,140.625 158.762 C 140.937 158.446,146.059 158.749,146.776 159.126 M153.167 159.301 C 153.167 159.806,153.049 160.049,152.583 160.500 L 152.000 161.065 152.000 159.866 L 152.000 158.667 152.583 158.667 C 153.148 158.667,153.167 158.687,153.167 159.301 M157.667 164.833 L 157.667 171.000 157.250 171.000 L 156.833 171.000 156.833 164.833 L 156.833 158.667 157.250 158.667 L 157.667 158.667 157.667 164.833 M165.999 163.997 L 169.495 169.243 169.539 163.997 L 169.583 158.750 170.042 158.697 L 170.500 158.645 170.500 164.822 L 170.500 171.000 170.019 171.000 C 169.572 171.000,169.290 170.624,166.061 165.738 L 162.583 160.475 162.539 165.738 L 162.495 171.000 161.998 171.000 L 161.500 171.000 161.500 164.823 L 161.500 158.646 162.002 158.698 C 162.459 158.745,162.812 159.213,165.999 163.997 M179.726 158.896 C 180.892 159.383,182.167 160.914,182.167 161.827 C 182.167 162.326,181.394 162.296,181.245 161.792 C 180.386 158.897,176.070 158.656,175.075 161.447 C 174.792 162.240,174.751 167.113,175.019 168.083 C 176.039 171.773,181.317 170.559,181.330 166.631 L 181.333 165.512 179.708 165.464 C 178.210 165.420,178.083 165.391,178.083 165.083 C 178.083 164.768,178.194 164.750,180.167 164.750 L 182.250 164.750 182.303 165.750 C 182.393 167.427,182.198 168.419,181.609 169.273 C 179.555 172.253,174.769 171.417,173.991 167.943 C 173.710 166.684,173.852 161.768,174.193 160.995 C 175.017 159.124,177.772 158.079,179.726 158.896 M193.083 159.083 C 193.083 159.402,192.944 159.420,189.833 159.500 L 186.583 159.583 186.537 161.954 L 186.491 164.325 189.287 164.371 C 192.035 164.416,192.084 164.423,192.136 164.788 C 192.189 165.157,192.177 165.159,189.386 165.204 L 186.583 165.250 186.537 167.705 L 186.491 170.160 189.787 170.205 C 192.957 170.248,193.083 170.263,193.083 170.583 C 193.083 170.905,192.957 170.918,189.375 170.962 L 185.667 171.006 185.667 164.833 L 185.667 158.660 189.375 158.705 C 192.957 158.748,193.083 158.761,193.083 159.083 M200.417 163.978 L 203.917 169.206 203.961 163.926 L 204.005 158.645 204.461 158.697 L 204.917 158.750 204.960 164.875 L 205.004 171.000 204.502 171.000 C 204.029 171.000,203.804 170.704,200.557 165.833 C 198.662 162.992,197.050 160.667,196.973 160.667 C 196.896 160.667,196.833 162.992,196.833 165.833 L 196.833 171.000 196.417 171.000 L 196.000 171.000 196.000 164.822 L 196.000 158.645 196.458 158.697 C 196.857 158.743,197.375 159.434,200.417 163.978 M209.667 164.833 L 209.667 171.000 209.250 171.000 L 208.833 171.000 208.833 164.833 L 208.833 158.667 209.250 158.667 L 209.667 158.667 209.667 164.833 M221.000 159.083 L 221.000 159.500 217.750 159.500 L 214.500 159.500 214.500 161.917 L 214.500 164.333 217.250 164.333 L 220.000 164.333 220.000 164.750 L 220.000 165.167 217.250 165.167 L 214.500 165.167 214.500 167.667 L 214.500 170.167 217.750 170.167 L 221.000 170.167 221.000 170.583 L 221.000 171.000 217.250 171.000 L 213.500 171.000 213.500 164.833 L 213.500 158.667 217.250 158.667 L 221.000 158.667 221.000 159.083 M230.444 159.122 C 232.802 160.380,232.482 164.612,229.991 165.110 C 229.230 165.262,229.237 165.287,230.749 168.175 C 232.397 171.320,232.307 171.035,231.625 170.969 C 231.105 170.919,231.025 170.804,229.661 168.167 L 228.239 165.417 226.536 165.369 L 224.833 165.322 224.833 168.161 L 224.833 171.000 224.333 171.000 L 223.833 171.000 223.833 164.820 L 223.833 158.640 226.792 158.696 C 229.468 158.746,229.816 158.787,230.444 159.122 M236.167 164.844 L 236.167 171.022 235.708 170.969 L 235.250 170.917 235.206 165.001 C 235.158 158.506,235.144 158.667,235.745 158.667 L 236.167 158.667 236.167 164.844 M247.500 159.083 L 247.500 159.500 244.250 159.500 L 241.000 159.500 241.000 161.913 L 241.000 164.325 243.708 164.371 C 246.374 164.416,246.418 164.423,246.470 164.792 L 246.523 165.167 243.762 165.167 L 241.000 165.167 241.000 167.667 L 241.000 170.167 244.250 170.167 L 247.500 170.167 247.500 170.583 L 247.500 171.000 243.750 171.000 L 240.000 171.000 240.000 164.833 L 240.000 158.667 243.750 158.667 L 247.500 158.667 247.500 159.083 M255.667 164.833 L 255.667 171.000 255.250 171.000 L 254.833 171.000 254.833 164.833 L 254.833 158.667 255.250 158.667 L 255.667 158.667 255.667 164.833 M263.999 163.997 L 267.495 169.243 267.539 163.997 L 267.583 158.750 268.042 158.697 L 268.500 158.645 268.500 164.833 L 268.500 171.021 267.998 170.969 C 267.541 170.921,267.188 170.454,263.998 165.667 L 260.500 160.417 260.500 165.708 L 260.500 171.000 260.000 171.000 L 259.500 171.000 259.500 164.823 L 259.500 158.646 260.002 158.698 C 260.459 158.745,260.812 159.213,263.999 163.997 M279.803 159.125 L 279.857 159.500 276.591 159.500 L 273.325 159.500 273.371 162.042 L 273.417 164.583 276.136 164.629 C 278.840 164.675,278.855 164.677,278.803 165.046 C 278.751 165.410,278.698 165.418,276.046 165.462 L 273.342 165.508 273.296 168.212 L 273.250 170.917 272.792 170.969 L 272.333 171.022 272.333 164.841 L 272.333 158.660 276.042 158.705 C 279.745 158.750,279.750 158.751,279.803 159.125 M287.595 159.063 C 289.463 159.933,289.834 160.892,289.832 164.853 C 289.831 168.322,289.715 168.830,288.690 169.857 C 286.490 172.057,282.487 171.179,281.686 168.320 C 281.302 166.949,281.494 161.586,281.957 160.718 C 282.944 158.870,285.543 158.108,287.595 159.063 M299.020 158.836 C 302.091 159.689,302.356 163.970,299.407 165.096 L 298.664 165.380 300.082 168.095 C 301.712 171.215,301.656 171.037,300.982 170.969 C 300.494 170.920,300.379 170.756,299.023 168.167 L 297.583 165.417 295.875 165.369 L 294.167 165.322 294.167 168.172 L 294.167 171.022 293.708 170.969 L 293.250 170.917 293.206 165.001 C 293.182 161.747,293.198 158.991,293.243 158.876 C 293.343 158.615,298.104 158.582,299.020 158.836 M307.666 163.373 C 308.812 165.916,309.791 167.997,309.841 167.998 C 309.891 167.999,310.857 165.900,311.988 163.333 C 313.992 158.786,314.057 158.667,314.522 158.667 L 315.000 158.667 315.000 164.833 L 315.000 171.000 314.502 171.000 L 314.005 171.000 313.961 166.065 L 313.917 161.129 312.274 164.856 C 309.679 170.744,309.999 170.712,307.573 165.333 C 306.581 163.133,305.708 161.333,305.634 161.333 C 305.560 161.333,305.500 163.508,305.500 166.167 L 305.500 171.000 305.083 171.000 L 304.667 171.000 304.667 164.822 L 304.667 158.645 305.124 158.697 C 305.551 158.746,305.720 159.059,307.666 163.373 M324.685 164.583 C 325.868 167.792,326.878 170.548,326.929 170.708 C 327.004 170.941,326.923 171.000,326.532 171.000 C 326.065 171.000,326.015 170.927,325.500 169.500 L 324.959 168.000 322.076 168.000 L 319.193 168.000 318.991 168.625 C 318.296 170.775,318.168 171.000,317.637 171.000 C 317.224 171.000,317.151 170.947,317.243 170.708 C 317.305 170.548,318.169 168.204,319.164 165.500 C 320.159 162.796,321.136 160.148,321.335 159.615 C 322.067 157.662,322.212 157.877,324.685 164.583 M335.083 159.083 C 335.083 159.391,334.944 159.423,333.250 159.500 L 331.417 159.583 331.373 165.292 L 331.329 171.000 330.917 171.000 L 330.504 171.000 330.461 165.292 L 330.417 159.583 328.625 159.536 C 326.841 159.489,326.833 159.487,326.833 159.075 L 326.833 158.661 330.958 158.705 C 334.957 158.749,335.083 158.760,335.083 159.083 M338.460 164.875 L 338.504 171.000 338.002 171.000 L 337.500 171.000 337.500 164.822 L 337.500 158.645 337.958 158.697 L 338.417 158.750 338.460 164.875 M347.928 159.063 C 348.925 159.527,349.723 160.429,349.994 161.395 C 350.312 162.529,350.160 168.102,349.792 168.817 C 349.395 169.588,349.414 169.684,350.083 170.333 C 350.727 170.958,350.809 171.243,350.388 171.405 C 350.200 171.477,349.904 171.311,349.481 170.898 L 348.852 170.284 348.014 170.645 C 345.547 171.706,342.620 170.619,342.018 168.417 C 341.774 167.528,341.779 162.137,342.024 161.320 C 342.497 159.740,344.102 158.670,346.000 158.670 C 346.789 158.670,347.313 158.777,347.928 159.063 M354.333 163.500 C 354.421 168.521,354.429 168.569,355.277 169.355 C 356.866 170.826,359.472 170.446,360.556 168.583 C 360.685 168.361,360.778 166.667,360.833 163.500 L 360.917 158.750 361.384 158.696 L 361.852 158.643 361.801 163.446 C 361.752 168.019,361.732 168.283,361.385 168.932 C 359.823 171.851,355.345 171.857,353.787 168.942 C 353.433 168.280,353.414 168.039,353.366 163.446 L 353.314 158.643 353.782 158.696 L 354.250 158.750 354.333 163.500 M372.917 159.083 C 372.917 159.402,372.778 159.420,369.667 159.500 L 366.417 159.583 366.370 161.954 L 366.324 164.325 369.120 164.371 C 371.868 164.416,371.918 164.423,371.969 164.788 C 372.022 165.157,372.010 165.159,369.219 165.204 L 366.417 165.250 366.417 167.667 L 366.417 170.083 369.667 170.167 C 372.778 170.246,372.917 170.264,372.917 170.583 C 372.917 170.905,372.791 170.918,369.208 170.962 L 365.500 171.006 365.500 164.833 L 365.500 158.660 369.208 158.705 C 372.791 158.748,372.917 158.761,372.917 159.083 M141.500 164.814 L 141.500 170.167 143.292 170.166 C 147.128 170.164,147.831 169.448,147.963 165.414 C 148.122 160.544,147.471 159.660,143.625 159.532 L 141.500 159.461 141.500 164.814 M224.833 162.000 L 224.833 164.531 227.238 164.474 C 230.407 164.398,231.289 163.786,231.116 161.779 C 230.965 160.031,230.217 159.609,227.125 159.528 L 224.833 159.468 224.833 162.000 M284.250 159.762 C 282.744 160.545,282.418 161.436,282.421 164.750 C 282.423 167.753,282.526 168.329,283.200 169.095 C 284.746 170.857,287.528 170.569,288.526 168.544 C 288.942 167.698,289.109 163.324,288.783 161.788 C 288.405 160.004,285.920 158.894,284.250 159.762 M294.167 162.000 L 294.167 164.500 296.208 164.499 C 299.618 164.498,300.417 164.022,300.417 161.992 C 300.417 159.983,299.603 159.511,296.125 159.504 L 294.167 159.500 294.167 162.000 M344.580 159.732 C 343.114 160.371,342.750 161.386,342.750 164.833 C 342.750 167.736,342.859 168.327,343.533 169.095 C 344.517 170.216,346.220 170.582,347.458 169.939 C 348.149 169.581,348.148 169.579,347.214 168.631 C 346.473 167.878,346.445 167.817,346.714 167.548 C 346.984 167.278,347.044 167.306,347.797 168.048 C 348.236 168.480,348.643 168.833,348.701 168.833 C 349.172 168.833,349.485 163.526,349.117 161.788 C 348.741 160.017,346.381 158.948,344.580 159.732 M321.772 160.861 C 320.824 163.426,319.667 166.779,319.667 166.956 C 319.667 167.116,320.264 167.167,322.158 167.167 L 324.648 167.167 323.806 164.792 C 323.343 163.485,322.812 161.967,322.627 161.417 C 322.175 160.076,322.083 160.016,321.772 160.861 " stroke="none" fill="#64b464" fill-rule="evenodd"></path></g></svg>